<svg xmlns="http://www.w3.org/2000/svg" xmlns:xlink="http://www.w3.org/1999/xlink" width="1681.799" height="843.243" viewBox="0 0 1681.799 843.243">
  <defs>
    <clipPath id="clip-path">
      <rect id="Rectangle_21" data-name="Rectangle 21" width="59.381" height="59.381" transform="translate(0 0)" fill="#fff" stroke="#707070" stroke-width="1"/>
    </clipPath>
  </defs>
  <g id="fly" transform="translate(-115.22 -193.928)">
    <g id="Letter">
      <path id="Path_4264" data-name="Path 4264" d="M1293.6,894.2c-3.8-24.7-7.5-49.4-10.2-74.2-2.1-19.7-3.9-39.5-6.4-59.2h-65.3c-358,4.1-372.1-3.3-372.1,25.1s6.5,204,16.7,206.6c7.4,1.9,297.2-4.6,452.2-8.2C1303.3,954.3,1298.2,924.3,1293.6,894.2Z" fill="#ced4da"/>
      <path id="Path_4265" data-name="Path 4265" d="M1293.6,894.2c-3.8-24.7-7.5-49.4-10.2-74.2-2.1-19.7-3.9-39.5-6.4-59.2h-65.3q-35.1.45-65.8.7c-8.7,18.1-20.5,34.8-34,50-43.9,49.6-101,85.4-143.5,136.6a275.443,275.443,0,0,0-30,44c99.1-1.6,265.3-5.3,370-7.8C1303.3,954.3,1298.2,924.3,1293.6,894.2Z" fill="#adb5bd"/>
      <path id="Path_4266" data-name="Path 4266" d="M1051,913.3l-.7-.5c-.4-.3-45.1-28.2-196.4-132.8l1.5-2.1c140.8,97.3,189.2,128.2,195.6,132.2l202-149.4,1.5,2.1Z" fill="#fff"/>
      <path id="Path_4267" data-name="Path 4267" d="M860.6,844.8c11.5-7.2,24.4-12.7,35-21.3,10.7-8.8,18.6-20.5,24.7-32.8A279.351,279.351,0,0,0,931.9,763c-86.9,1.4-92.3,5.3-92.3,22.8,0,10.3.9,39.9,2.4,73.6A118.793,118.793,0,0,1,860.6,844.8Z" fill="#adb5bd"/>
      <path id="Path_4268" data-name="Path 4268" d="M795.1,773.4c4.8-1.5,10.7,1.1,12.5,5.9-3.8-4.5-7.6-9.1-9.5-14.7s-1.3-12.4,3-16.4c6.3-6,16.6-3.3,24.5.3a185.525,185.525,0,0,1,38.2,23.6c5.9,4.8,12.1,11.3,10.8,18.8-1.3,7.6-9.6,11.8-17.1,13.7-18.2,4.8-39.3,4.3-57-2.4C790.2,798.4,779.4,778.3,795.1,773.4Z" fill="#adb5bd"/>
      <path id="Path_4269" data-name="Path 4269" d="M872.7,746.2c1.7,2.8,5.5,4.4,9.1,4.2a11.555,11.555,0,0,0,8.9-4.8,8.733,8.733,0,0,0,.7-9.3,10.778,10.778,0,0,0-9-5.1C874.4,731.1,869.2,740.4,872.7,746.2Z" fill="#ced4da"/>
      <path id="Path_4270" data-name="Path 4270" d="M901.7,743.2c1.7,2.8,5.5,4.4,9.1,4.2a11.721,11.721,0,0,0,8.9-4.8,8.733,8.733,0,0,0,.7-9.3,10.778,10.778,0,0,0-9-5.1C903.4,728.2,898.2,737.4,901.7,743.2Z" fill="#ced4da"/>
      <path id="Path_4271" data-name="Path 4271" d="M930.8,741.5c1.7,2.8,5.5,4.4,9.1,4.2a11.555,11.555,0,0,0,8.9-4.8,8.733,8.733,0,0,0,.7-9.3,10.778,10.778,0,0,0-9-5.1C932.5,726.5,927.3,735.8,930.8,741.5Z" fill="#ced4da"/>
      <path id="Path_4272" data-name="Path 4272" d="M858.1,986.8l-2.1-1.6A616.915,616.915,0,0,1,979.5,862.9L981,865A614.038,614.038,0,0,0,858.1,986.8Z" fill="#fff"/>
      <path id="Path_4273" data-name="Path 4273" d="M1036.9,952.9c.4-6.5.7-13,1.1-19.4-20.2-.1-40.3-.3-60.5-.4-10.3-.1-31.8-5.2-33.6,10.2s22.3,9.5,31.8,9.5Q1006.3,952.8,1036.9,952.9Z" fill="#fff"/>
      <g id="logo" transform="translate(1019.154 817.48) rotate(-13)">
        <g id="circle" transform="translate(0 0)">
          <path id="Path_1" data-name="Path 1" d="M233.642,246a2.908,2.908,0,0,1,2.922-2.908l4.845.016a2.912,2.912,0,0,1,2.913,2.913v18.319c.546-.162,1.246-.334,2.012-.515a2.427,2.427,0,0,0,1.871-2.362V238.737a2.913,2.913,0,0,1,2.913-2.913h4.854a2.913,2.913,0,0,1,2.913,2.913v21.091s1.216-.492,2.4-.992a2.431,2.431,0,0,0,1.484-2.237V231.456a2.912,2.912,0,0,1,2.912-2.913h4.854a2.913,2.913,0,0,1,2.912,2.913v20.7a56.931,56.931,0,0,0,11.859-11.13,4.889,4.889,0,0,0,.744-4.564A34.286,34.286,0,1,0,223.933,264.8a4.336,4.336,0,0,0,4.137,2.143c.918-.081,2.062-.2,3.421-.355a2.426,2.426,0,0,0,2.152-2.408V246" transform="translate(-219.378 -213.334)" fill="#fff"/>
          <path id="Path_2" data-name="Path 2" d="M244.417,299.937A34.3,34.3,0,0,0,298.891,272.2c0-.79-.037-1.571-.089-2.348-12.532,18.691-35.671,27.429-54.385,30.089" transform="translate(-230.259 -237.892)" fill="#fff"/>
        </g>
      </g>
    </g>
    <g id="Plane_2">
      <g id="Character">
        <g id="Hand">
          <path id="Path_4274" data-name="Path 4274" d="M1022.7,413.9c14.3-8.7,30.4-43.9,28.3-62.4s-.4-18.1,3.4-17.3c3.8.9,4.7,21.6,6.4,21.9s11.1,11.3,9.4,19.4,2,56.6-45,67.5C978.1,453.9,1022.7,413.9,1022.7,413.9Z" fill="#848c94"/>
          <path id="Path_4275" data-name="Path 4275" d="M1056.8,366.1c-1.4-15.9,6.8-21.2,10-17.5,3.1,3.7-1.8,13.1-1.5,18.7S1057.3,372.2,1056.8,366.1Z" fill="#adb5bd"/>
        </g>
        <g id="Body_3_">
          <path id="Path_4276" data-name="Path 4276" d="M976.6,474.4q26.55-6.45,53.3-12.7c.4-12.1,1.4-24.2,1.1-36.3-.4-17.8-4-36.4-15.2-50.3s-31.4-21.6-47.6-14.1c-14.8,6.9-22.1,23.6-26.5,39.3a249.015,249.015,0,0,0-8.9,55.6c-.3,7.8-1.8,20-.1,30.1C946.9,480.6,962.3,477.9,976.6,474.4Z" fill="#ced4da"/>
          <path id="Path_4277" data-name="Path 4277" d="M961.9,452.2c-11.1-10.1,37.9-57.8,62.4-62.7a61.629,61.629,0,0,0-8.4-14.5c-11.2-13.9-31.4-21.6-47.6-14.1-14.8,6.9-22.1,23.6-26.5,39.3a249.015,249.015,0,0,0-8.9,55.6c-.3,7.8-1.8,20-.1,30.1,5.9-2.3,63.1-19.1,69.3-20.7C1002.8,449.2,974.4,463.6,961.9,452.2Z" fill="#ced4da"/>
          <path id="Path_4278" data-name="Path 4278" d="M961.9,452.2a5.5,5.5,0,0,1-.7-.9c-9.3.1-18.6-.2-28-.8-.1,1.8-.2,3.5-.3,5.3-.3,7.8-1.8,20-.1,30.1,5.9-2.3,63.1-19.1,69.3-20.7C1002.8,449.2,974.4,463.6,961.9,452.2Z" fill="#848c94"/>
          <path id="Path_4279" data-name="Path 4279" d="M975.5,349.2c-24.4,2.3-43.5,21.2-45.4,48.4-2,28.5,16.2,34.1,25.7,32.4,19.6-3.4,21.8-19.5,25.7-37.2,0,0,50.9-9.3,56.1-11.2s-16.9-6.3-16.9-6.3S1013.5,345.5,975.5,349.2Z" fill="#adb5bd"/>
          <path id="Path_4280" data-name="Path 4280" d="M971.1,349.8c-22.3,4-39.2,22.2-41,47.8-2,28.5,16.2,34.1,25.7,32.4a27.439,27.439,0,0,0,11.1-4.3C958.1,403.2,961,373.9,971.1,349.8Z" fill="#adb5bd"/>
          <path id="Path_4281" data-name="Path 4281" d="M956.9,417.2c4.1-.1,9.7-3.2,11.1-7.1,4.8-13.8-12.9-21.3-20.1-13.9C940.8,403.5,946.6,417.5,956.9,417.2Z" fill="#ced4da"/>
          <path id="Path_4282" data-name="Path 4282" d="M1013.5,413.6c1.7-.1,4-1.3,4.5-2.9,1.9-5.6-5.3-8.7-8.2-5.7C1007,408,1009.3,413.7,1013.5,413.6Z" fill="#848c94"/>
          <path id="Path_4283" data-name="Path 4283" d="M1006,403.5l-2.5-.8a10.849,10.849,0,0,1,17.1-5.2l-1.6,2a8.141,8.141,0,0,0-7.5-1.4A8.688,8.688,0,0,0,1006,403.5Z" fill="#848c94"/>
          <path id="Path_4284" data-name="Path 4284" d="M1019.8,435.4a10.587,10.587,0,0,1-10.4-8.6l2.6-.5a7.983,7.983,0,0,0,11.4,5.7l1.1,2.3A11.156,11.156,0,0,1,1019.8,435.4Z" fill="#fff"/>
          <path id="Path_4285" data-name="Path 4285" d="M1004.1,375.5a31.358,31.358,0,0,0-19.7-17.3,31.783,31.783,0,0,0-26,3.8l-1.4-2.2a33.784,33.784,0,0,1,49.5,14.6Z" fill="#fff"/>
          <path id="Path_4286" data-name="Path 4286" d="M953.1,389.3a24.807,24.807,0,0,0-19.1.6,14.1,14.1,0,0,0-6.3,5,8.864,8.864,0,0,0-1.3,7.7c1.5,4.2,6.4,5.9,10.8,6.7a82.627,82.627,0,0,0,14.9,1.4c5,0,14.2-1.1,14.5-7.8C966.8,396.9,957.7,391.1,953.1,389.3Z" fill="#ced4da"/>
        </g>
      </g>
      <g id="Plane_1_">
        <path id="Path_4287" data-name="Path 4287" d="M905.9,563c40.1,56.9,60.7,77.5,65.3,72.8,4.7-4.7,173.1-177.5,173.1-177.5Z" fill="#848c94"/>
        <path id="Path_4288" data-name="Path 4288" d="M1204.6,422c-180.2,22.4-347.4,70.1-354.8,80.3-7.4,10.3-34.5,118.5-30.7,119.5,3.7.9,369.6-173.6,385.5-183C1220.5,429.5,1204.6,422,1204.6,422Z" fill="#adb5bd"/>
        <path id="Path_4289" data-name="Path 4289" d="M954.7,508.3c16.6,1.6,54.4-18.6,69.6-24.6,23.5-9.1,55-11.1,52.1-41.5-43.5,8.2-83.6,17-117.5,25.4C951.9,478.8,937.6,506.7,954.7,508.3Z" fill="#ced4da"/>
      </g>
      <g id="Hand_1_1_">
        <path id="Path_4291" data-name="Path 4291" d="M1080.6,438.2c-15.8-4.6-43.3,8.3-60.2,4.7-9-1.9-19.9-5-28-7.4-7.6,6.8-14.6,14.4-21.6,21.8,44.4,22.9,89.2,6.4,96.4,6.6,9,.2,8.5-5.4,7.7-6.6,0,0,8.9-3.9,4.9-9.9C1079.7,447.4,1087.5,440.2,1080.6,438.2Z" fill="#848c94"/>
        <path id="Path_4292" data-name="Path 4292" d="M1023.3,444.3a81.377,81.377,0,0,1-25.7-4.2l.8-2.5a78.27,78.27,0,0,0,30.6,3.9l.2,2.6A57.172,57.172,0,0,1,1023.3,444.3Z" fill="#fff"/>
        <path id="Path_4293" data-name="Path 4293" d="M990.4,435.9a21.779,21.779,0,0,0-23.9,5.1c-4.1,4.3-7.1,9.3-7.5,13.7-.9,8.4,13.8,7,13.8,7l23.6-23.3Z" fill="#848c94"/>
        <path id="Path_4294" data-name="Path 4294" d="M1072.7,457.9a11.262,11.262,0,0,0-11.1-.2l-1.2-2.3a14,14,0,0,1,13.6.3Z" fill="#fff"/>
        <path id="Path_4295" data-name="Path 4295" d="M1078.6,448.4a16.2,16.2,0,0,0-14.4-.1L1063,446a18.436,18.436,0,0,1,16.8.1Z" fill="#fff"/>
      </g>
    </g>
    <path id="Cloud_2" d="M886.5,360.2c-4.1-4.5-8.9-8.7-14.8-10.2s-13,.4-16,5.7.4,13.5,6.5,13.8a192.554,192.554,0,0,0-55.3-30.8c-11.4-4.1-26.3-6.1-33.6,3.5-5.1,6.7-3.8,16.7.9,23.8s12,11.8,19.2,16.3,14.7,9,19.7,15.8c-4.4-3-9.2-6.1-14.5-5.7s-10.2,6.4-7.4,11c2.2,3.5,7.1,3.8,11.2,3.6,28-1.1,57.1-.1,84.9-3.4C915.5,400.3,898.8,373.7,886.5,360.2Z" fill="#ced4da"/>
    <g id="Plane_1">
      <g id="Character_1_">
        <g id="Body">
          <path id="Path_4296" data-name="Path 4296" d="M524.6,652.1c-2.9-10.2-7.5-20.4-6.1-30.8,2.2-16.6,19.6-28.7,36.3-28.3,68.4,1.7,89.3,44.9,89.3,44.9s-21.5,6.4-33.9,11.9c9.2,14.3,18.5,41.1,11,56.3a50.65,50.65,0,0,1-40.3,27.5c-14.3,1.2-45.7-4.7-53.3-19.2-3.9-7.5.2-17.5.8-25.3A105.45,105.45,0,0,0,524.6,652.1Z" fill="#adb5bd"/>
          <path id="Path_4297" data-name="Path 4297" d="M610.2,649.9c.3-.1.7-.3,1-.4q-4.05-.75-8.1-1.8c-15.1,11.8-35.5,17.6-51.5,4.7-12.4-10-15.7-28.6-9.8-42.9a90.752,90.752,0,0,1-7.4-10.9c-8.4,5-14.8,13.1-16,22.7-1.4,10.5,3.2,20.7,6.1,30.8a105.21,105.21,0,0,1,3.8,37c-.6,7.8-4.7,17.9-.8,25.3,7.7,14.5,39,20.4,53.3,19.2a50.65,50.65,0,0,0,40.3-27.5C628.8,691,619.4,664.2,610.2,649.9Z" fill="#ced4da"/>
          <path id="Path_4298" data-name="Path 4298" d="M615.7,683c-6.6,1-13.2,2.5-19.9,2.8-5.6.3-11.4-2.5-12.3-8.7-1.2-7.9-8.4-14-16.6-13-10.8,1.3-10.9,11.7-10.6,20.3.2,4.3-1.2,10-6.1,11.5-7,2.2-13.9,3.9-21,5.6a15.039,15.039,0,0,1-2.9.3c-.6,4.5-.7,8.9,1.3,12.7,7.7,14.5,39,20.4,53.3,19.2a50.65,50.65,0,0,0,40.3-27.5c3.3-6.6,3.3-15.4,1.7-24.4Z" fill="#848c94"/>
          <path id="Path_4299" data-name="Path 4299" d="M555,632.5a15.032,15.032,0,0,0,15.5,6.4,14.719,14.719,0,0,0,11.1-12.5,14.552,14.552,0,0,0-8.4-14.4C560.6,606.4,547.4,620.5,555,632.5Z" fill="#fff"/>
          <path id="Path_4300" data-name="Path 4300" d="M573.5,637.7a14.859,14.859,0,0,0,8.1-11.4,14.257,14.257,0,0,0-15.1-15.6C568.8,619.7,571.1,628.8,573.5,637.7Z" fill="#848c94"/>
          <path id="Path_4301" data-name="Path 4301" d="M563.7,614.9c3.5-.7,7.1-1.4,10.6-2.1a22.476,22.476,0,0,0,7.2-2.3c2.2-1.3,4.1-3.4,4.2-6,.3-3.6-2.8-6.7-6.3-7.7-5.1-1.4-10.9.2-15.9,1.2-3.4.6-7.5,1.3-10.1,3.9-2.4,2.4-2.5,5.8-1.1,8.9C554.7,615.6,559,615.8,563.7,614.9Z" fill="#848c94"/>
          <path id="Path_4302" data-name="Path 4302" d="M583.9,697a179.357,179.357,0,0,1-5.5-17.6c-1.2-4.6-5.2-8.1-10.3-7.3-4.4.8-9.4,3-6.7,12.5,2.1,7.4,3.7,12.6,6.3,19.8,1.6,4.5,7.7,6.3,11.8,4.4C584.2,706.7,585.5,701.6,583.9,697Z" fill="#ced4da"/>
          <path id="Path_4303" data-name="Path 4303" d="M606.6,655.9a17.135,17.135,0,0,1-5.3-12.8,17.376,17.376,0,0,1,6-12.5l1.7,2a14.333,14.333,0,0,0-.6,21.4Z" fill="#fff"/>
        </g>
        <g id="Hand_1_">
          <path id="Path_4304" data-name="Path 4304" d="M653.5,641.8c2.8-9.6,6.2-16.4,13.7-19.3s7.8,2.4,3.9,5.6a64.327,64.327,0,0,0-7.4,7.4Z" fill="#848c94"/>
          <path id="Path_4305" data-name="Path 4305" d="M638.3,696.7c24.6-47.6,3-55,27.6-64.8,18.9-7.5,11.9,7.3,11.9,7.3s9.6,3.9,2.4,11.2c0,0,5.5,6.1-2.9,11.4-8.4,5.2-2.4,13-13.6,31.6C652.3,711.9,638.3,696.7,638.3,696.7Z" fill="#848c94"/>
          <path id="Path_4306" data-name="Path 4306" d="M684.4,614.4c19.4.3,43.2-7.3,43.6-5.1.5,3.1,14.8,45.2-13.4,49.3-28.2,4-28.4-19.7-29.3-24.6S682.3,614.3,684.4,614.4Z" fill="#adb5bd"/>
          <path id="Path_4307" data-name="Path 4307" d="M683.6,616.1c-.5,4,.9,14,1.6,17.9.9,4.9,1.2,28.6,29.3,24.6,6.3-.9,10.4-3.7,13.1-7.5C709.9,646.5,693.2,632.3,683.6,616.1Z" fill="#848c94"/>
          <path id="Path_4308" data-name="Path 4308" d="M686.6,656a34.445,34.445,0,0,1-8.4-1c-6.7-1.8-14.2-7.2-15.6-15.3-1.3-7.2,3-15.2,9.9-18.7,6.4-3.2,14.8-2.6,21.3,1.5l-1.4,2.2c-5.8-3.6-13.2-4.1-18.8-1.3-5.9,3-9.6,9.8-8.5,15.9,1.2,7,7.8,11.7,13.7,13.3,7,1.9,14.5.6,20.8-.8l.6,2.5A68.235,68.235,0,0,1,686.6,656Z" fill="#ced4da"/>
          <path id="Path_4309" data-name="Path 4309" d="M680.1,650.4l-13.2-16.7c-7.7,5.1-8.4,12.1-5.8,14.8,1.7,1.8,3.7.8,5.5-.5-1.9,1.7-3.3,4,0,6.1,4.8,3.1,14.9,4.5,15.1,2.4S680.1,650.4,680.1,650.4Z" fill="#848c94"/>
          <path id="Path_4310" data-name="Path 4310" d="M662.9,650.9a5.662,5.662,0,0,1-1.8-.3,5.8,5.8,0,0,1-4-5.1c-.2-2.3,2.4-6.6,10.1-11.7l1.4,2.2c-7.5,5-9,8.5-8.9,9.4a3.364,3.364,0,0,0,2.2,2.8c1.6.5,3.5-.3,4.7-1a29.927,29.927,0,0,0,8.1-6l1.9,1.8a33.287,33.287,0,0,1-8.8,6.6A12.2,12.2,0,0,1,662.9,650.9Z" fill="#fff"/>
          <path id="Path_4311" data-name="Path 4311" d="M666.1,658.5a5.822,5.822,0,0,1-1.9-.3,5.53,5.53,0,0,1-3.3-2.7,4.336,4.336,0,0,1-.4-3.3l2.5.8a1.427,1.427,0,0,0,.2,1.3,2.909,2.909,0,0,0,1.7,1.4c1.2.4,2.8.1,4.7-.7a19.948,19.948,0,0,0,6.9-5.3l2,1.6a22.074,22.074,0,0,1-7.8,6.1A13.177,13.177,0,0,1,666.1,658.5Z" fill="#fff"/>
          <path id="Path_4312" data-name="Path 4312" d="M673,664.9a12.542,12.542,0,0,1-4.6-.9,4.906,4.906,0,0,1-2.9-4.7l2.6.3a2.285,2.285,0,0,0,1.4,2,10.482,10.482,0,0,0,3.6.7Z" fill="#fff"/>
          <path id="Path_4313" data-name="Path 4313" d="M727.9,609.3c-1-4.2-16.3-1.6-26.2.2s-16.6,3.6-17.4,4.8,1.7,6.9,18.5,3.5C719.7,614.4,728.8,613.2,727.9,609.3Z" fill="#848c94"/>
          <path id="Path_4314" data-name="Path 4314" d="M724.8,614.2c.7-6.3-12.9-3.9-21.7-2.2-8.9,1.7-15,3.6-16.1,5.3-1.1,1.8-1.1,10.1,14.1,6.8S724.2,620,724.8,614.2Z" fill="#ced4da"/>
          <path id="Path_4315" data-name="Path 4315" d="M718.6,620c3.8-1.3,5.9-3,6.2-5.8.7-6.3-12.9-3.9-21.7-2.2-.4.1-.7.1-1,.2A60.813,60.813,0,0,1,718.6,620Z" fill="#adb5bd"/>
        </g>
      </g>
      <g id="Wrist">
        <path id="Path_4316" data-name="Path 4316" d="M517.1,816.4c103-47.4,136.6-85,157.2-59.7s-59.7,69.8-67.1,86.3c-7.5,16.5-13.9,79.9-101.5,86.9s-49.1-93.6-49.1-93.6Z" fill="#adb5bd"/>
        <path id="Path_4317" data-name="Path 4317" d="M803,659.3c-88.5,66-241.5,203.8-250,209.6s-39-51.3-61-83.9C470.1,752.3,803,659.3,803,659.3Z" fill="#848c94"/>
        <path id="Path_4318" data-name="Path 4318" d="M700.6,705.6c-4.6-6.3-32.5,3.8-43.7,7.8C593.7,736,532,755.5,478.3,795.7c-5.4,4-10.6,8.1-15.7,12.4C453.7,814.7,321,894.3,291,934.3c-11.3,15-8.6,64.1,49.6,87.2,144.6,57.2,172.8-58.6,210.9-85.3,76.2,28.8,91.1-47.8,91.1-47.8s22.2-17.9,22.8-47c.6-31.3-15.3-58.8-81.1-50,20.2-15.3,75.8-34.1,99.1-44.1C691.9,743.5,715.7,726.3,700.6,705.6Z" fill="#ced4da"/>
        <path id="Path_4319" data-name="Path 4319" d="M571,909.9c-1.8,2.8-5.1,8.8-7.2,11.4-7.2,8.9-15.2,16.9-12.2,14.8,43.9,16.6,67.5-1.8,79.5-20.4C610.1,920.1,587.6,919,571,909.9Z" fill="#adb5bd"/>
        <path id="Path_4320" data-name="Path 4320" d="M319.1,939.8A340.854,340.854,0,0,0,419,904.6c54.8-29.8,90.9-79.3,106.5-138.5a360.023,360.023,0,0,0-47.2,29.5c-5.4,4-10.6,8.1-15.7,12.4C453.7,814.6,321,894.2,291,934.2a26.326,26.326,0,0,0-4.2,9.7A293.965,293.965,0,0,0,319.1,939.8Z" fill="#adb5bd"/>
        <path id="Path_4321" data-name="Path 4321" d="M426.8,735.6c-34.6,46.3-61,99.7-67.7,110.9-8.8,14.6,18.9-.4,83.7-25.8s362-156.5,368.1-162.2-26.3-7.3-89.7,10S436.1,723.3,426.8,735.6Z" fill="#adb5bd"/>
        <path id="Path_4322" data-name="Path 4322" d="M537.2,747.2c-46.1,9.7-95.3,42.3-143.2,37.6-17.8,29.4-30.5,54.5-34.9,61.7-8.8,14.6,18.9-.4,83.7-25.8,30.1-11.8,110.4-46.4,188.3-80.7C600.1,734.7,563.3,741.7,537.2,747.2Z" fill="#848c94"/>
        <g id="Group_894" data-name="Group 894">
          <path id="Path_4323" data-name="Path 4323" d="M555.3,933.6l-1.6-2.1a54.749,54.749,0,0,0,18.4-25.1l2.4.9A57.8,57.8,0,0,1,555.3,933.6Z" fill="#fff"/>
          <path id="Path_4324" data-name="Path 4324" d="M601.2,915a74.8,74.8,0,0,1-28.3-5.9l1-2.4c11.1,4.6,23.2,6.5,33.2,5.3l.3,2.6C605.4,914.8,603.3,915,601.2,915Z" fill="#fff"/>
          <path id="Path_4325" data-name="Path 4325" d="M644.2,885.2l-2.5-.7c2.7-9.4-.8-22.9-7.4-28.4-7.3-6.1-50.7-8.2-61.3-7.2l-.3-2.6c9.8-.9,54.8.7,63.2,7.8C643.3,860.2,647.2,874.7,644.2,885.2Z" fill="#fff"/>
          <rect id="Rectangle_454" data-name="Rectangle 454" width="2.6" height="11.1" transform="matrix(0.453, -0.891, 0.891, 0.453, 542.907, 847.059)" fill="#fff"/>
          <rect id="Rectangle_455" data-name="Rectangle 455" width="2.6" height="11.4" transform="matrix(0.296, -0.955, 0.955, 0.296, 547.403, 798.377)" fill="#fff"/>
          <path id="Path_4326" data-name="Path 4326" d="M685.1,735.7a18.26,18.26,0,0,1-13.7-6.1l2-1.7a15.381,15.381,0,0,0,26.9-11.8l2.6-.3a18.459,18.459,0,0,1-10.7,18.4A17.755,17.755,0,0,1,685.1,735.7Z" fill="#fff"/>
        </g>
      </g>
    </g>
    <g id="Plane_3">
      <g id="Hand_2">
        <path id="Path_4327" data-name="Path 4327" d="M1306,369.9c81.8,10.1,129.8-28.8,151.8-37.5,26.9-10.7,46-20.8,45.5-13.5-.5,7.9-16.2,14.9-16.2,14.9s7.3,16.8-10.5,23.2c0,0-53.4,49-102.4,56.7s-74.6-7-74.8-10.6C1299.2,399.6,1306,369.9,1306,369.9Z" fill="#adb5bd"/>
        <path id="Path_4328" data-name="Path 4328" d="M1455.3,366.3l-.4-2.6c3.4-.6,5.4-4,7.8-8.3,2.4-4.2,5.2-9,10.1-13,5.7-4.5,7.4-9.4,6.3-11.1-.8-1.3-4.1-1.6-10.7,1.9a30.936,30.936,0,0,0-4.8,3.3,20.816,20.816,0,0,1-8.1,4.4l-.6-2.5a17.745,17.745,0,0,0,7.1-4,31.324,31.324,0,0,1,5.2-3.5c9.5-5,12.9-2.8,14.1-1,2.2,3.5-.7,9.7-6.9,14.5-4.6,3.6-7.2,8.2-9.5,12.2C1462.3,361.4,1460,365.5,1455.3,366.3Z" fill="#fff"/>
        <path id="Path_4329" data-name="Path 4329" d="M1482.2,354.1l-2.1-1.5a11.841,11.841,0,0,0,1.2-10.7c-.6-1.7-1.6-2.8-2.5-3l.5-2.5c1.8.4,3.4,2.1,4.4,4.6A14.2,14.2,0,0,1,1482.2,354.1Z" fill="#fff"/>
        <path id="Path_4330" data-name="Path 4330" d="M1474.9,359l-1.8-1.9c1.7-1.6.7-8.6-1.1-10.8l2-1.7C1476.2,347.2,1478.1,355.9,1474.9,359Z" fill="#fff"/>
      </g>
      <g id="Back_wing">
        <path id="Path_4331" data-name="Path 4331" d="M1005.4,544.3c67.6,29.2,139,43.7,139,43.7l-66-79.7-53.3,16.1Z" fill="#848c94"/>
        <path id="Path_4332" data-name="Path 4332" d="M1042.6,502.9c-23.8,16.2-83.4,68.9-82.6,72.6,2.1,9.7,72-47,105.2-59.5,31.3-11.8,552.5-176.2,552.5-176.2C1482.7,354.1,1066.4,486.7,1042.6,502.9Z" fill="#ced4da"/>
      </g>
      <g id="Body_1_">
        <g id="Body_2_">
          <path id="Path_4333" data-name="Path 4333" d="M1313.6,368.9a45.437,45.437,0,0,0,25.3,15.7c6.6-10.7,18.3-30.9,24.8-41.7-13.3-2.8-38.2,4-56.2,1.7C1306.3,353,1307.6,361.5,1313.6,368.9Z" fill="#ced4da"/>
          <path id="Path_4334" data-name="Path 4334" d="M1314,342.7c-26.4-3.6-52.2-6.2-52.2-6.2-84.2,53.3-133.5,166.4-133.5,166.4L1315.1,468s29.4-75.6,46.2-108.8C1337.5,358.1,1322.5,358,1314,342.7Z" fill="#848c94"/>
        </g>
        <g id="Head">
          <path id="Path_4335" data-name="Path 4335" d="M1329.5,347c52.1.4,91.6-8.7,103-16.1,16.1-10.3,14.4-31.3,4-45-5.3-6.9-17-14-46.4-7.3,5.6-24.3-10.3-50.6-33.3-60.3-23-9.8-50.5-4.6-71.1,9.6C1234.7,263.2,1315.8,346.9,1329.5,347Z" fill="#adb5bd"/>
          <path id="Path_4336" data-name="Path 4336" d="M1317.6,323.8c-10.2-20.2-9.4-50.4,1.5-70.1,5.8-10.5,15.1-16.8,26.3-20.6,7.9-2.7,16.7-3.7,24.2-7.2a57.889,57.889,0,0,0-12.6-7.6c-22.9-9.8-50.5-4.6-71.1,9.6-51.1,35.2-74.7,108.6.3,116.6a470.225,470.225,0,0,0,51.6,2.5A64.433,64.433,0,0,1,1317.6,323.8Z" fill="#ced4da"/>
          <path id="Path_4337" data-name="Path 4337" d="M1287.8,296.3c19.6-12.4,23.8-29.2,25.2-50.9a11.05,11.05,0,0,1,10.7-10.7c15.9-.9,30.2-3.9,43.6-10.4a53.521,53.521,0,0,0-10.4-5.9c-22.9-9.8-50.5-4.6-71.1,9.6-25.2,17.4-43.7,44-47,67.5C1254.6,303.5,1271,306.9,1287.8,296.3Z" fill="#adb5bd"/>
          <path id="Path_4338" data-name="Path 4338" d="M1342.1,280.7a16.155,16.155,0,0,0,16.2,4.1,17.607,17.607,0,0,0,12.1-17.8c-.7-7.7-7.4-14.6-15.1-15.3-6.8-.6-14.9,4.1-17.2,10.7C1336.3,267.7,1338.5,276.9,1342.1,280.7Z" fill="#fff"/>
          <path id="Path_4339" data-name="Path 4339" d="M1357,252.1c.6,10.9.8,21.9,1.1,32.8.1,0,.2,0,.2-.1a17.607,17.607,0,0,0,12.1-17.8C1369.8,259.9,1364,253.6,1357,252.1Z" fill="#848c94"/>
          <path id="Path_4340" data-name="Path 4340" d="M1372.5,306.6c-3.1-.6-6.5-1.2-9.5,0-4.8,1.9-7,8-5.5,12.9s5.9,8.5,10.7,10.3,10.1,2,15.2,2.1c6,.1,12.2-.1,17.6-2.6,7.2-3.3,13.9-12.9,4.3-16.6C1395.6,308.9,1382.8,308.5,1372.5,306.6Z" fill="#848c94"/>
          <path id="Path_4341" data-name="Path 4341" d="M1392.7,322.1c-7.6-1.7-25.7-3.9-31.5,3.2a20.421,20.421,0,0,0,7.1,4.5c4.8,1.8,10.1,2,15.2,2.1,6,.1,12.2-.1,17.6-2.6a17.208,17.208,0,0,0,5.1-3.5C1401.3,324.2,1396.5,323,1392.7,322.1Z" fill="#ced4da"/>
          <path id="Path_4342" data-name="Path 4342" d="M1337.9,257.5a10.964,10.964,0,0,0,5.1.3c7.5-.6,15-1.1,22.4-1.7,1.8-.1,3.8-.3,5.2-1.6,2.3-2.1,1.7-5.8.9-8.8-.8-3.2-1.9-6.7-4.8-8.2-2.1-1.2-4.7-.9-7.1-.7-4.9.5-9.9,1-14.8,1.6-3.1.3-7,.8-9.4,3C1331.1,245.3,1332.5,255.4,1337.9,257.5Z" fill="#ced4da"/>
          <path id="Path_4343" data-name="Path 4343" d="M1384.8,213.9c2.9-3,5.5-7,4.8-11.1-.9-5.9-7.9-9.1-13.8-8-5.8,1.1-10.6,5.1-15.1,8.9,1.8-3.7-1.3-8.3-5.2-9.4s-8.1.4-11.6,2.4a37.669,37.669,0,0,0-16.2,19.2c-1.1,3-1.7,6.8.5,9.1,1.3,1.4,3.4,1.9,5.3,2.2C1351.5,230.3,1371.5,227.5,1384.8,213.9Z" fill="#848c94"/>
        </g>
      </g>
      <g id="Plane">
        <path id="Path_4344" data-name="Path 4344" d="M1121.6,599.4c76.6,33.7,113.7,87.5,124.2,93.1s114.7-120.9,168-168.1c41.2-36.5,182.5-168.3,182.5-168.3Z" fill="#adb5bd"/>
        <path id="Path_4345" data-name="Path 4345" d="M1381.3,530.5c-9.4,14.8-16.2,31-21.3,47.7,19.8-21.1,38.8-40.6,53.8-53.9,11.1-9.9,29.6-26.7,50.6-46C1432.5,476.3,1396.4,506.9,1381.3,530.5Z" fill="#ced4da"/>
        <path id="Path_4346" data-name="Path 4346" d="M1617.7,339.9c-12.3-7.2-498.1,135.5-552.5,176.2-5.6,4.2-10.9,44.2-18.7,87.3-4.4,24.6-9.7,50.1-12,67.5,18.1-6.1,36.9-10.1,55.8-13.3,31.8-24.5,73.4-58.1,117.5-88.2C1288.7,514.1,1630,347.1,1617.7,339.9Z" fill="#ced4da"/>
        <path id="Path_4347" data-name="Path 4347" d="M1211.4,456.9a81.309,81.309,0,0,0-1.5,8.6c-1.6,11.7-.4,24.5,9.2,32.6,12.4,10.4,26.6,13.5,44.9,7.1,32.5-11.3,25.5-28.1,126.3-63,24.1-8.4,1.4-21.5,9-44.9C1336.4,416.1,1269.2,437.3,1211.4,456.9Z" fill="#adb5bd"/>
        <path id="Path_4348" data-name="Path 4348" d="M1090.3,657.7c-15.6-13.2-66.9-15.7-66.1-10.7.8,4.9,10.3,24,10.3,24Z" fill="#adb5bd"/>
      </g>
      <g id="Hand_1">
        <path id="Path_4349" data-name="Path 4349" d="M1410.8,405c-6.6-4.3-44.3,2.9-54,4.3s-22.1-3.2-38.8-11.1c-15,0-27.8,4.4-37.1,21.5,53.7,32,88,22.6,102.7,21.4,19-1.6,22.5-3.9,22.1-10.9,0,0,12-3.7,4.3-13.7C1410,416.5,1417.4,409.3,1410.8,405Z" fill="#848c94"/>
        <path id="Path_4350" data-name="Path 4350" d="M1403.6,430.6a31.183,31.183,0,0,0-21.3,0l-.9-2.4a33.951,33.951,0,0,1,23.1,0Z" fill="#fff"/>
        <path id="Path_4351" data-name="Path 4351" d="M1410.3,417.7c-7.6-3-13.7-3.4-20.3-1.1l-.8-2.5c7.2-2.4,13.8-2.1,22.1,1.2Z" fill="#fff"/>
        <path id="Path_4352" data-name="Path 4352" d="M1391.6,397.5a12.616,12.616,0,0,1,4.4-2.4,4.57,4.57,0,0,1,4.6,1.3,4.483,4.483,0,0,1,.5,4.2,10.142,10.142,0,0,1-2.5,3.6c-2.8,2.7-18.6,11.3-22.5,8.1C1370.9,408,1388.7,399.7,1391.6,397.5Z" fill="#848c94"/>
        <path id="Path_4353" data-name="Path 4353" d="M1390.8,406l-1.1-2.4a30.882,30.882,0,0,1,9.9-1.8l-.1,2.6A32.555,32.555,0,0,0,1390.8,406Z" fill="#fff"/>
        <path id="Path_4354" data-name="Path 4354" d="M1270.5,434.2l-.4-.5a174.584,174.584,0,0,1-22.4-31l2.3-1.3a173.867,173.867,0,0,0,21.6,30.1c3.1-.4,8.9-2.8,12.9-5.3l1.4,2.2c-4.2,2.6-11.1,5.5-14.7,5.7Z" fill="#fff"/>
        <path id="Path_4355" data-name="Path 4355" d="M1321.9,396.5a120.029,120.029,0,0,1-28.7-21.9l1.9-1.8a119.475,119.475,0,0,0,28.1,21.4Z" fill="#fff"/>
      </g>
    </g>
    <g id="Cloud_1">
      <path id="Path_4356" data-name="Path 4356" d="M1713.7,831.2c-15.2-15.6-58.5-26.4-78.3-3.9-9.9,11.2-7,30.9-1.4,44.6-49.9-58.9-83.9-124.8-181.7-204.5-100.2-81.8-243.6-33.2-279,22.4-11.9,18.7-11.9,44.7,16.5,73.4,25.3,25.5,41.6,57.9,65.8,82.8-41.3-24.9-247.1-15.2-150.3,107.7,16,20.4,38.6,35.6,61.6,44.4,21,8.1,43.5,8,65.6,7.8q192-1.2,384.1-2.5l95.4-.6c22.5-.1,48.6,3.6,69.3-9.2C1814.7,973,1796.1,915.8,1713.7,831.2Z" fill="#ced4da"/>
      <path id="Path_4357" data-name="Path 4357" d="M1300.2,784.9c-26.7,5.4-51.2,30.9-53.6,62.6-2,26.7,11.5,52.5,29.9,68.4s40.9,23.4,63.3,28.8a443.117,443.117,0,0,0,83.1,12.1c59.6,2.9,71.8-65.3,21.3-95.9C1399.2,833.8,1355.3,773.7,1300.2,784.9Z" fill="#adb5bd"/>
      <path id="Path_4358" data-name="Path 4358" d="M1376.2,786.6c8,5.4,18.6,10.7,25.8,3.9,4.5-4.2,5.7-12.1,4.1-18.6s-5.5-11.9-9.7-16.6c-12.3-13.5-57.8-41.9-72.3-18.5C1312.4,755.8,1365.7,779.5,1376.2,786.6Z" fill="#fff"/>
    </g>
    <g id="Steam">
      <path id="Path_4359" data-name="Path 4359" d="M661.8,558.6c-14.1-20.9-29.5-22.2-41.6-16.5-2.8,1.3-5.8,4-4.9,6.9-21.2-23.7-56-16.9-70.2-4a33.51,33.51,0,0,0-10.3,17.4c-.9,4.2.8,8.6,3.6,11.8s6.7,5.2,10.7,6.7c11.2,4.2,23.5,4.2,35.4,3.2,20.9-1.8,46.7-4.6,66.3-12.2,23.1,20.4,34,33.2,37.3,33.1C690.2,605,683.9,591.4,661.8,558.6Z" fill="#ced4da"/>
      <path id="Path_4360" data-name="Path 4360" d="M412.3,450.1c-14.2,1.2-28.4,4.1-41,10.9-12.5,6.7-23.3,17.6-27.7,31.1-7.3,22.5,4.4,47.9,23,62.4s42.6,20.2,66.1,23.1a352.559,352.559,0,0,0,87.7-.3c16.1-2.1,71.7-5.5,71-27.5-.6-18.4-28.1-42.4-41-53.5a196.732,196.732,0,0,0-61.3-35.8A182.209,182.209,0,0,0,412.3,450.1Z" fill="#ced4da"/>
      <path id="Path_4361" data-name="Path 4361" d="M428.7,494.5c-9.5.1-19.2,1.1-27.5,5.6s-14.9,13.2-14.7,22.7c.2,8.8,6.3,16.6,13.7,21.3s16.1,6.8,24.7,8.9c22.5,5.5,45.1,10.9,67.6,16.4,13.1,3.2,29.5,5.3,37.8-5.3,5-6.4,5-15.7,2-23.3C518.5,505.7,461.8,494.3,428.7,494.5Z" fill="#adb5bd"/>
    </g>
    <g id="Lines">
      <path id="Path_4362" data-name="Path 4362" d="M311.1,761a86.264,86.264,0,0,1-31-5.4,68.816,68.816,0,0,1-19.3-11.4c-39.5,12.2-86.2,2.1-115.2-27.7-36.5-37.6-40.7-102.4-9.4-144.5l2.1,1.6c-30.6,41.1-26.5,104.4,9.1,141.1,28,28.8,72.8,38.7,111.1,27.5-9.1-8.5-15.5-19.2-17.6-30.5-4-21.2,8.2-43.7,27.1-50.1,9.9-3.4,21.9-1.5,31.5,4.8,8.7,5.8,14,14.5,14.6,23.7,1.3,19.9-16.6,34.7-24.3,40.1a102.423,102.423,0,0,1-26,13.1,67.393,67.393,0,0,0,17.3,10c16.7,6.4,36.9,7,58.5,1.6,19.4-4.8,37.8-13.7,55.6-22.2l1.1,2.3c-17.9,8.6-36.4,17.5-56.1,22.4A132.225,132.225,0,0,1,311.1,761Zm-32.8-98.6a29.994,29.994,0,0,0-9.5,1.5c-17.7,6-29.1,27.2-25.3,47.2,2.1,11.2,8.6,21.9,17.9,30.1a100.138,100.138,0,0,0,26.8-13.3c7.4-5.2,24.4-19.2,23.2-37.8-.5-8.4-5.5-16.3-13.5-21.7A36.074,36.074,0,0,0,278.3,662.4Z" fill="#adb5bd"/>
      <path id="Path_4363" data-name="Path 4363" d="M780,528.4c-27,0-54.1-12.6-70.1-34.7l2.1-1.5c22,30.6,66.1,42.3,100.4,26.7l1.1,2.4A80.644,80.644,0,0,1,780,528.4Z" fill="#adb5bd"/>
    </g>
    <path id="Path_4290" data-name="Path 4290" d="M868.352,540.19a11.555,11.555,0,0,1-8.948-3.678c-5-5.325-5.819-11.528-2.525-19.048,4.007-9.167,13.943-15.864,23.6-15.864h0a9.769,9.769,0,0,1,8.509,4.5c2.251,3.952.659,8.673-.988,12.79-.878,2.2-1.976,4.556-4.282,5.435a4.719,4.719,0,0,1-5.489-1.921,1.948,1.948,0,0,1-.22-.494,23.54,23.54,0,0,1-7.685,7.74c-2.36,1.482-5.544,2.36-7.63.494-1.921-1.757-1.592-4.776-.494-7.026a13.855,13.855,0,0,1,16.743-6.368l.11-.384.933.165.22.329c.274.439.055.933-.274,1.811s-.878,2.36-.494,2.964a3.281,3.281,0,0,0,3.788,1.318c1.757-.659,2.69-2.635,3.458-4.611,1.537-3.843,2.964-8.179,1.043-11.583a8.322,8.322,0,0,0-7.246-3.788h0c-9.112,0-18.5,6.313-22.287,14.986-3.019,6.917-2.306,12.626,2.251,17.511,2.36,2.47,5.6,3.513,9.661,3.129,9.826-1.043,21.3-10.265,23.989-14.766l1.208.714c-2.909,4.831-14.6,14.327-25.032,15.425A7.944,7.944,0,0,1,868.352,540.19Zm6.093-22.836a12.318,12.318,0,0,0-10.924,6.423c-.878,1.757-1.208,4.117.165,5.325,1.482,1.372,4.062.549,5.929-.6a22.74,22.74,0,0,0,8.838-10.43A11.226,11.226,0,0,0,874.445,517.355Z" transform="translate(-430.098 234)" fill="#fff"/>
    <g id="blockscan-squared" transform="matrix(0.883, 0.469, -0.469, 0.883, 862.03, 432.267)">
      <g id="Mask_Group_1" data-name="Mask Group 1" transform="translate(39.986 58.986)" clip-path="url(#clip-path)">
        <g id="squared" transform="translate(0.011 0.8)">
          <rect id="box" width="50.914" height="50.394" transform="translate(0 7.965) rotate(-9)" fill="#848c94"/>
          <rect id="box-2" data-name="box" width="50.689" height="50.492" transform="translate(8.451 0.051)" fill="#fff"/>
          <path id="Path_48" data-name="Path 48" d="M16.4-37.337a9.481,9.481,0,0,1,4.987,1.319,9.018,9.018,0,0,1,3.435,3.8,12.865,12.865,0,0,1,1.242,5.821,12.958,12.958,0,0,1-1.242,5.86,9.018,9.018,0,0,1-3.435,3.8A9.481,9.481,0,0,1,16.4-15.41a8.459,8.459,0,0,1-4.967-1.436,7.509,7.509,0,0,1-2.872-3.8v4.967H4.14V-44.4H8.564v12.3a7.509,7.509,0,0,1,2.872-3.8A8.459,8.459,0,0,1,16.4-37.337Zm-1.358,3.881a6.425,6.425,0,0,0-3.337.873A6.172,6.172,0,0,0,9.379-30.1a7.794,7.794,0,0,0-.854,3.706,7.765,7.765,0,0,0,.854,3.726A6.2,6.2,0,0,0,11.708-20.2a6.425,6.425,0,0,0,3.337.873,6.221,6.221,0,0,0,4.735-1.882,7.224,7.224,0,0,0,1.785-5.181,7.238,7.238,0,0,0-1.785-5.161A6.188,6.188,0,0,0,15.045-33.456Z" transform="translate(18.711 55.346)" fill="#848c94"/>
        </g>
      </g>
    </g>
  </g>
</svg>
